<?xml version="1.0" encoding="UTF-8" standalone="no"?>
<!DOCTYPE svg PUBLIC "-//W3C//DTD SVG 1.1//EN"
 "http://www.w3.org/Graphics/SVG/1.1/DTD/svg11.dtd">
<!-- Generated by graphviz version 2.38.0 (20140413.2041)
 -->
<!-- Title: finite_state_machine Pages: 1 -->
<svg width="918pt" height="548pt"
 viewBox="0.00 0.00 918.00 548.00" xmlns="http://www.w3.org/2000/svg" xmlns:xlink="http://www.w3.org/1999/xlink">
<g id="graph0" class="graph" transform="scale(1 1) rotate(0) translate(4 544)">
<title>finite_state_machine</title>
<polygon fill="white" stroke="none" points="-4,4 -4,-544 914,-544 914,4 -4,4"/>
<!-- snapshot -->
<g id="node1" class="node"><title>snapshot</title>
<ellipse fill="none" stroke="black" cx="756" cy="-450" rx="41.118" ry="18"/>
<text text-anchor="middle" x="756" y="-445.8" font-family="Times,serif" font-size="14.00">snapshot</text>
</g>
<!-- db -->
<g id="node2" class="node"><title>db</title>
<ellipse fill="none" stroke="black" cx="368" cy="-90" rx="27" ry="18"/>
<text text-anchor="middle" x="368" y="-85.8" font-family="Times,serif" font-size="14.00">db</text>
</g>
<!-- snapshot&#45;&gt;db -->
<g id="edge1" class="edge"><title>snapshot&#45;&gt;db</title>
<path fill="none" stroke="black" d="M771.784,-433.096C794.576,-408.366 834,-358.191 834,-307 834,-307 834,-307 834,-233 834,-168.37 778.42,-169.421 719,-144 611.922,-98.1912 471.66,-91.1328 405.558,-90.5766"/>
<polygon fill="black" stroke="black" points="405.239,-87.0755 395.226,-90.5386 405.213,-94.0755 405.239,-87.0755"/>
</g>
<!-- config -->
<g id="node3" class="node"><title>config</title>
<ellipse fill="none" stroke="black" cx="368" cy="-18" rx="32.4324" ry="18"/>
<text text-anchor="middle" x="368" y="-13.8" font-family="Times,serif" font-size="14.00">config</text>
</g>
<!-- snapshot&#45;&gt;config -->
<g id="edge2" class="edge"><title>snapshot&#45;&gt;config</title>
<path fill="none" stroke="black" d="M779.196,-434.972C813.047,-412.526 872,-365.095 872,-307 872,-307 872,-307 872,-161 872,-65.2701 530.874,-30.9435 409.911,-21.7806"/>
<polygon fill="black" stroke="black" points="410.14,-18.2881 399.91,-21.0427 409.625,-25.2691 410.14,-18.2881"/>
</g>
<!-- data&#45;sample -->
<g id="node4" class="node"><title>data&#45;sample</title>
<ellipse fill="none" stroke="black" cx="547" cy="-234" rx="52.6607" ry="18"/>
<text text-anchor="middle" x="547" y="-229.8" font-family="Times,serif" font-size="14.00">data&#45;sample</text>
</g>
<!-- snapshot&#45;&gt;data&#45;sample -->
<g id="edge3" class="edge"><title>snapshot&#45;&gt;data&#45;sample</title>
<path fill="none" stroke="black" stroke-dasharray="1,5" d="M755.713,-431.88C754.234,-399.372 746.383,-328.357 707,-288 698.949,-279.75 640.184,-261.574 596.191,-248.819"/>
<polygon fill="black" stroke="black" points="597.069,-245.429 586.491,-246.024 595.131,-252.156 597.069,-245.429"/>
</g>
<!-- mock -->
<g id="node5" class="node"><title>mock</title>
<ellipse fill="none" stroke="black" cx="560" cy="-306" rx="29.5104" ry="18"/>
<text text-anchor="middle" x="560" y="-301.8" font-family="Times,serif" font-size="14.00">mock</text>
</g>
<!-- snapshot&#45;&gt;mock -->
<g id="edge4" class="edge"><title>snapshot&#45;&gt;mock</title>
<path fill="none" stroke="black" stroke-dasharray="1,5" d="M714.744,-448.324C674.015,-445.333 612.913,-434.2 578,-396 562.835,-379.407 558.979,-353.686 558.539,-334.154"/>
<polygon fill="black" stroke="black" points="562.04,-334.056 558.596,-324.037 555.04,-334.017 562.04,-334.056"/>
</g>
<!-- services -->
<g id="node6" class="node"><title>services</title>
<ellipse fill="none" stroke="black" cx="359" cy="-378" rx="38.6782" ry="18"/>
<text text-anchor="middle" x="359" y="-373.8" font-family="Times,serif" font-size="14.00">services</text>
</g>
<!-- snapshot&#45;&gt;services -->
<g id="edge5" class="edge"><title>snapshot&#45;&gt;services</title>
<path fill="none" stroke="black" stroke-dasharray="1,5" d="M717.812,-442.971C644.084,-430.578 482.888,-402.194 404.063,-387.766"/>
<polygon fill="black" stroke="black" points="404.427,-384.274 393.959,-385.91 403.162,-391.159 404.427,-384.274"/>
</g>
<!-- tools&#45;data -->
<g id="node7" class="node"><title>tools&#45;data</title>
<ellipse fill="none" stroke="black" cx="665" cy="-162" rx="44.9596" ry="18"/>
<text text-anchor="middle" x="665" y="-157.8" font-family="Times,serif" font-size="14.00">tools&#45;data</text>
</g>
<!-- snapshot&#45;&gt;tools&#45;data -->
<g id="edge6" class="edge"><title>snapshot&#45;&gt;tools&#45;data</title>
<path fill="none" stroke="black" stroke-dasharray="1,5" d="M761.676,-431.903C774.121,-391.069 799.459,-286.052 757,-216 746.26,-198.281 727.215,-185.904 709.228,-177.594"/>
<polygon fill="black" stroke="black" points="710.537,-174.347 699.968,-173.612 707.772,-180.778 710.537,-174.347"/>
</g>
<!-- db&#45;&gt;config -->
<g id="edge46" class="edge"><title>db&#45;&gt;config</title>
<path fill="none" stroke="black" stroke-dasharray="1,5" d="M368,-71.6966C368,-63.9827 368,-54.7125 368,-46.1124"/>
<polygon fill="black" stroke="black" points="371.5,-46.1043 368,-36.1043 364.5,-46.1044 371.5,-46.1043"/>
</g>
<!-- data&#45;sample&#45;&gt;tools&#45;data -->
<g id="edge35" class="edge"><title>data&#45;sample&#45;&gt;tools&#45;data</title>
<path fill="none" stroke="black" d="M572.314,-217.983C589.852,-207.579 613.363,-193.632 632.316,-182.389"/>
<polygon fill="black" stroke="black" points="634.122,-185.387 640.936,-177.275 630.55,-179.367 634.122,-185.387"/>
</g>
<!-- tools&#45;i18n -->
<g id="node17" class="node"><title>tools&#45;i18n</title>
<ellipse fill="none" stroke="black" cx="551" cy="-162" rx="45.9459" ry="18"/>
<text text-anchor="middle" x="551" y="-157.8" font-family="Times,serif" font-size="14.00">tools&#45;i18n</text>
</g>
<!-- data&#45;sample&#45;&gt;tools&#45;i18n -->
<g id="edge36" class="edge"><title>data&#45;sample&#45;&gt;tools&#45;i18n</title>
<path fill="none" stroke="black" d="M547.989,-215.697C548.43,-207.983 548.959,-198.712 549.451,-190.112"/>
<polygon fill="black" stroke="black" points="552.946,-190.288 550.023,-180.104 545.958,-189.888 552.946,-190.288"/>
</g>
<!-- i18n&#45;ui -->
<g id="node18" class="node"><title>i18n&#45;ui</title>
<ellipse fill="none" stroke="black" cx="451" cy="-162" rx="35.806" ry="18"/>
<text text-anchor="middle" x="451" y="-157.8" font-family="Times,serif" font-size="14.00">i18n&#45;ui</text>
</g>
<!-- data&#45;sample&#45;&gt;i18n&#45;ui -->
<g id="edge37" class="edge"><title>data&#45;sample&#45;&gt;i18n&#45;ui</title>
<path fill="none" stroke="black" d="M525.694,-217.465C511.934,-207.431 493.882,-194.268 478.971,-183.396"/>
<polygon fill="black" stroke="black" points="480.754,-180.364 470.612,-177.3 476.63,-186.02 480.754,-180.364"/>
</g>
<!-- mock&#45;&gt;db -->
<g id="edge42" class="edge"><title>mock&#45;&gt;db</title>
<path fill="none" stroke="black" d="M537.129,-294.356C531.888,-292.107 526.298,-289.855 521,-288 462.797,-267.623 427.332,-298.649 387,-252 354.803,-214.761 357.733,-153.252 362.819,-118.021"/>
<polygon fill="black" stroke="black" points="366.301,-118.415 364.431,-107.987 359.389,-117.305 366.301,-118.415"/>
</g>
<!-- mock&#45;&gt;config -->
<g id="edge41" class="edge"><title>mock&#45;&gt;config</title>
<path fill="none" stroke="black" d="M537.178,-294.21C531.935,-291.968 526.332,-289.756 521,-288 453.006,-265.601 414.45,-302.791 364,-252 306.738,-194.351 308.117,-149.665 332,-72 335.237,-61.4743 341.354,-51.1634 347.64,-42.4752"/>
<polygon fill="black" stroke="black" points="350.547,-44.4367 353.881,-34.3801 345.003,-40.1624 350.547,-44.4367"/>
</g>
<!-- mock&#45;&gt;data&#45;sample -->
<g id="edge43" class="edge"><title>mock&#45;&gt;data&#45;sample</title>
<path fill="none" stroke="black" d="M556.853,-288.055C555.421,-280.346 553.691,-271.027 552.082,-262.364"/>
<polygon fill="black" stroke="black" points="555.475,-261.468 550.208,-252.275 548.593,-262.746 555.475,-261.468"/>
</g>
<!-- mock&#45;&gt;tools&#45;data -->
<g id="edge44" class="edge"><title>mock&#45;&gt;tools&#45;data</title>
<path fill="none" stroke="black" d="M582.856,-294.314C588.098,-292.067 593.692,-289.826 599,-288 659.751,-267.098 699.632,-302.772 739,-252 748.804,-239.356 746.312,-230.231 739,-216 731.358,-201.126 717.389,-189.493 703.631,-180.963"/>
<polygon fill="black" stroke="black" points="705.099,-177.769 694.688,-175.802 701.6,-183.832 705.099,-177.769"/>
</g>
<!-- services&#45;&gt;snapshot -->
<g id="edge13" class="edge"><title>services&#45;&gt;snapshot</title>
<path fill="none" stroke="black" d="M394.897,-384.644C466.941,-396.727 628.662,-425.193 709.003,-439.88"/>
<polygon fill="black" stroke="black" points="708.849,-443.41 719.317,-441.772 710.112,-436.525 708.849,-443.41"/>
</g>
<!-- services&#45;&gt;db -->
<g id="edge9" class="edge"><title>services&#45;&gt;db</title>
<path fill="none" stroke="black" d="M354.941,-359.929C352.694,-349.598 350.133,-336.12 349,-324 344.636,-277.337 348.635,-197.976 356,-144 357.166,-135.456 359.029,-126.256 360.943,-117.958"/>
<polygon fill="black" stroke="black" points="364.391,-118.591 363.346,-108.048 357.588,-116.941 364.391,-118.591"/>
</g>
<!-- services&#45;&gt;mock -->
<g id="edge15" class="edge"><title>services&#45;&gt;mock</title>
<path fill="none" stroke="black" stroke-dasharray="1,5" d="M390.668,-367.614C423.551,-357.642 476.334,-340.998 521,-324 523.075,-323.21 525.201,-322.372 527.337,-321.506"/>
<polygon fill="black" stroke="black" points="528.765,-324.703 536.638,-317.612 526.062,-318.246 528.765,-324.703"/>
</g>
<!-- auth0 -->
<g id="node8" class="node"><title>auth0</title>
<ellipse fill="none" stroke="black" cx="388" cy="-306" rx="29.5104" ry="18"/>
<text text-anchor="middle" x="388" y="-301.8" font-family="Times,serif" font-size="14.00">auth0</text>
</g>
<!-- services&#45;&gt;auth0 -->
<g id="edge7" class="edge"><title>services&#45;&gt;auth0</title>
<path fill="none" stroke="black" d="M366.02,-360.055C369.368,-351.973 373.45,-342.121 377.182,-333.112"/>
<polygon fill="black" stroke="black" points="380.451,-334.367 381.045,-323.789 373.984,-331.688 380.451,-334.367"/>
</g>
<!-- calculator -->
<g id="node9" class="node"><title>calculator</title>
<ellipse fill="none" stroke="black" cx="145" cy="-306" rx="44.9337" ry="18"/>
<text text-anchor="middle" x="145" y="-301.8" font-family="Times,serif" font-size="14.00">calculator</text>
</g>
<!-- services&#45;&gt;calculator -->
<g id="edge8" class="edge"><title>services&#45;&gt;calculator</title>
<path fill="none" stroke="black" d="M328.339,-366.971C291.64,-354.966 229.941,-334.785 188.369,-321.186"/>
<polygon fill="black" stroke="black" points="189.374,-317.833 178.782,-318.05 187.198,-324.486 189.374,-317.833"/>
</g>
<!-- db&#45;journal -->
<g id="node10" class="node"><title>db&#45;journal</title>
<ellipse fill="none" stroke="black" cx="255" cy="-306" rx="46.8891" ry="18"/>
<text text-anchor="middle" x="255" y="-301.8" font-family="Times,serif" font-size="14.00">db&#45;journal</text>
</g>
<!-- services&#45;&gt;db&#45;journal -->
<g id="edge10" class="edge"><title>services&#45;&gt;db&#45;journal</title>
<path fill="none" stroke="black" d="M337.954,-362.834C322.993,-352.765 302.658,-339.077 285.865,-327.775"/>
<polygon fill="black" stroke="black" points="287.705,-324.794 277.454,-322.114 283.796,-330.601 287.705,-324.794"/>
</g>
<!-- job&#45;queue -->
<g id="node11" class="node"><title>job&#45;queue</title>
<ellipse fill="none" stroke="black" cx="653" cy="-306" rx="45.4355" ry="18"/>
<text text-anchor="middle" x="653" y="-301.8" font-family="Times,serif" font-size="14.00">job&#45;queue</text>
</g>
<!-- services&#45;&gt;job&#45;queue -->
<g id="edge11" class="edge"><title>services&#45;&gt;job&#45;queue</title>
<path fill="none" stroke="black" d="M394.21,-370.231C441.196,-360.968 526.859,-343.281 599,-324 602.378,-323.097 605.86,-322.117 609.353,-321.098"/>
<polygon fill="black" stroke="black" points="610.571,-324.387 619.142,-318.158 608.558,-317.682 610.571,-324.387"/>
</g>
<!-- s3&#45;store -->
<g id="node12" class="node"><title>s3&#45;store</title>
<ellipse fill="none" stroke="black" cx="474" cy="-306" rx="38.211" ry="18"/>
<text text-anchor="middle" x="474" y="-301.8" font-family="Times,serif" font-size="14.00">s3&#45;store</text>
</g>
<!-- services&#45;&gt;s3&#45;store -->
<g id="edge12" class="edge"><title>services&#45;&gt;s3&#45;store</title>
<path fill="none" stroke="black" d="M381.446,-363.337C398.939,-352.689 423.431,-337.781 442.827,-325.975"/>
<polygon fill="black" stroke="black" points="444.888,-328.818 451.61,-320.628 441.249,-322.838 444.888,-328.818"/>
</g>
<!-- start -->
<g id="node13" class="node"><title>start</title>
<ellipse fill="none" stroke="black" cx="55" cy="-306" rx="27" ry="18"/>
<text text-anchor="middle" x="55" y="-301.8" font-family="Times,serif" font-size="14.00">start</text>
</g>
<!-- services&#45;&gt;start -->
<g id="edge14" class="edge"><title>services&#45;&gt;start</title>
<path fill="none" stroke="black" d="M321.854,-372.594C269.43,-365.719 171.185,-350.413 91,-324 89.0798,-323.367 87.1284,-322.658 85.178,-321.896"/>
<polygon fill="black" stroke="black" points="86.1537,-318.506 75.5837,-317.781 83.3941,-324.939 86.1537,-318.506"/>
</g>
<!-- tools&#45;data&#45;&gt;db -->
<g id="edge25" class="edge"><title>tools&#45;data&#45;&gt;db</title>
<path fill="none" stroke="black" d="M630.155,-150.576C622.239,-148.315 613.85,-146.003 606,-144 534.5,-125.756 450.022,-107.784 403.391,-98.1722"/>
<polygon fill="black" stroke="black" points="403.982,-94.7206 393.482,-96.1383 402.574,-101.578 403.982,-94.7206"/>
</g>
<!-- tools&#45;data&#45;&gt;config -->
<g id="edge26" class="edge"><title>tools&#45;data&#45;&gt;config</title>
<path fill="none" stroke="black" d="M637.326,-147.768C582.489,-121.55 460.24,-63.1013 401.189,-34.868"/>
<polygon fill="black" stroke="black" points="402.468,-31.6003 391.937,-30.4444 399.449,-37.9156 402.468,-31.6003"/>
</g>
<!-- parser -->
<g id="node23" class="node"><title>parser</title>
<ellipse fill="none" stroke="black" cx="144" cy="-234" rx="31.9219" ry="18"/>
<text text-anchor="middle" x="144" y="-229.8" font-family="Times,serif" font-size="14.00">parser</text>
</g>
<!-- calculator&#45;&gt;parser -->
<g id="edge45" class="edge"><title>calculator&#45;&gt;parser</title>
<path fill="none" stroke="black" d="M144.753,-287.697C144.643,-279.983 144.51,-270.712 144.387,-262.112"/>
<polygon fill="black" stroke="black" points="147.887,-262.053 144.244,-252.104 140.888,-262.153 147.887,-262.053"/>
</g>
<!-- sample -->
<g id="node14" class="node"><title>sample</title>
<ellipse fill="none" stroke="black" cx="229" cy="-234" rx="35.3129" ry="18"/>
<text text-anchor="middle" x="229" y="-229.8" font-family="Times,serif" font-size="14.00">sample</text>
</g>
<!-- db&#45;journal&#45;&gt;sample -->
<g id="edge16" class="edge"><title>db&#45;journal&#45;&gt;sample</title>
<path fill="none" stroke="black" stroke-dasharray="1,5" d="M248.706,-288.055C245.736,-280.059 242.123,-270.331 238.806,-261.4"/>
<polygon fill="black" stroke="black" points="241.999,-259.945 235.236,-251.789 235.437,-262.382 241.999,-259.945"/>
</g>
<!-- start&#45;&gt;config -->
<g id="edge40" class="edge"><title>start&#45;&gt;config</title>
<path fill="none" stroke="black" d="M61.4167,-288.249C69.2386,-269.292 83.8217,-238.174 103,-216 173.4,-134.602 283.053,-66.6478 336.532,-36.1922"/>
<polygon fill="black" stroke="black" points="338.543,-39.0762 345.537,-31.1172 335.107,-32.9781 338.543,-39.0762"/>
</g>
<!-- export -->
<g id="node15" class="node"><title>export</title>
<ellipse fill="none" stroke="black" cx="687" cy="-522" rx="32.8994" ry="18"/>
<text text-anchor="middle" x="687" y="-517.8" font-family="Times,serif" font-size="14.00">export</text>
</g>
<!-- export&#45;&gt;snapshot -->
<g id="edge20" class="edge"><title>export&#45;&gt;snapshot</title>
<path fill="none" stroke="black" d="M701.972,-505.811C711.03,-496.622 722.766,-484.716 732.984,-474.349"/>
<polygon fill="black" stroke="black" points="735.569,-476.712 740.097,-467.134 730.584,-471.798 735.569,-476.712"/>
</g>
<!-- export&#45;&gt;db -->
<g id="edge17" class="edge"><title>export&#45;&gt;db</title>
<path fill="none" stroke="black" d="M654.043,-520.716C545.563,-519.366 200.824,-511.66 100,-468 45.4017,-444.357 0,-438.497 0,-379 0,-379 0,-379 0,-233 0,-162.28 239.539,-113.243 332.098,-96.934"/>
<polygon fill="black" stroke="black" points="332.868,-100.353 342.123,-95.1949 331.672,-93.4558 332.868,-100.353"/>
</g>
<!-- export&#45;&gt;tools&#45;data -->
<g id="edge21" class="edge"><title>export&#45;&gt;tools&#45;data</title>
<path fill="none" stroke="black" d="M718.007,-516.08C779.281,-504.407 910,-468.96 910,-379 910,-379 910,-379 910,-305 910,-216.79 789.647,-182.474 717.648,-169.837"/>
<polygon fill="black" stroke="black" points="717.836,-166.32 707.396,-168.126 716.683,-173.225 717.836,-166.32"/>
</g>
<!-- export&#45;&gt;job&#45;queue -->
<g id="edge18" class="edge"><title>export&#45;&gt;job&#45;queue</title>
<path fill="none" stroke="black" d="M685.879,-503.94C683.739,-474.397 678.338,-411.894 668,-360 666.273,-351.332 663.838,-342.015 661.431,-333.647"/>
<polygon fill="black" stroke="black" points="664.772,-332.601 658.559,-324.018 658.064,-334.602 664.772,-332.601"/>
</g>
<!-- export&#45;&gt;s3&#45;store -->
<g id="edge19" class="edge"><title>export&#45;&gt;s3&#45;store</title>
<path fill="none" stroke="black" d="M671.293,-506.213C646.782,-483.04 598.088,-436.618 558,-396 536.516,-374.231 512.632,-348.803 495.842,-330.713"/>
<polygon fill="black" stroke="black" points="498.023,-327.917 488.66,-322.958 492.887,-332.673 498.023,-327.917"/>
</g>
<!-- data&#45;backlog -->
<g id="node16" class="node"><title>data&#45;backlog</title>
<ellipse fill="none" stroke="black" cx="674" cy="-234" rx="55.551" ry="18"/>
<text text-anchor="middle" x="674" y="-229.8" font-family="Times,serif" font-size="14.00">data&#45;backlog</text>
</g>
<!-- data&#45;backlog&#45;&gt;tools&#45;data -->
<g id="edge22" class="edge"><title>data&#45;backlog&#45;&gt;tools&#45;data</title>
<path fill="none" stroke="black" d="M671.775,-215.697C670.783,-207.983 669.592,-198.712 668.486,-190.112"/>
<polygon fill="black" stroke="black" points="671.946,-189.576 667.199,-180.104 665.003,-190.469 671.946,-189.576"/>
</g>
<!-- data&#45;backlog&#45;&gt;tools&#45;i18n -->
<g id="edge23" class="edge"><title>data&#45;backlog&#45;&gt;tools&#45;i18n</title>
<path fill="none" stroke="black" d="M647.613,-217.983C629.249,-207.532 604.603,-193.506 584.801,-182.236"/>
<polygon fill="black" stroke="black" points="586.506,-179.179 576.083,-177.275 583.043,-185.263 586.506,-179.179"/>
</g>
<!-- data&#45;backlog&#45;&gt;i18n&#45;ui -->
<g id="edge24" class="edge"><title>data&#45;backlog&#45;&gt;i18n&#45;ui</title>
<path fill="none" stroke="black" d="M633.088,-221.722C596.84,-211.515 542.593,-195.715 496,-180 493.418,-179.129 490.764,-178.204 488.097,-177.253"/>
<polygon fill="black" stroke="black" points="489.087,-173.889 478.493,-173.744 486.685,-180.464 489.087,-173.889"/>
</g>
<!-- notifier -->
<g id="node19" class="node"><title>notifier</title>
<ellipse fill="none" stroke="black" cx="623" cy="-378" rx="35.806" ry="18"/>
<text text-anchor="middle" x="623" y="-373.8" font-family="Times,serif" font-size="14.00">notifier</text>
</g>
<!-- notifier&#45;&gt;job&#45;queue -->
<g id="edge27" class="edge"><title>notifier&#45;&gt;job&#45;queue</title>
<path fill="none" stroke="black" d="M630.262,-360.055C633.726,-351.973 637.948,-342.121 641.809,-333.112"/>
<polygon fill="black" stroke="black" points="645.082,-334.359 645.805,-323.789 638.648,-331.602 645.082,-334.359"/>
</g>
<!-- dynamic -->
<g id="node20" class="node"><title>dynamic</title>
<ellipse fill="none" stroke="black" cx="316" cy="-450" rx="40.6162" ry="18"/>
<text text-anchor="middle" x="316" y="-445.8" font-family="Times,serif" font-size="14.00">dynamic</text>
</g>
<!-- dynamic&#45;&gt;mock -->
<g id="edge31" class="edge"><title>dynamic&#45;&gt;mock</title>
<path fill="none" stroke="black" stroke-dasharray="1,5" d="M339.84,-435.126C384.677,-409.032 481.44,-352.72 530.376,-324.24"/>
<polygon fill="black" stroke="black" points="532.332,-327.151 539.215,-319.096 528.811,-321.101 532.332,-327.151"/>
</g>
<!-- dynamic&#45;&gt;services -->
<g id="edge29" class="edge"><title>dynamic&#45;&gt;services</title>
<path fill="none" stroke="black" d="M326.19,-432.411C331.385,-423.955 337.811,-413.494 343.595,-404.078"/>
<polygon fill="black" stroke="black" points="346.631,-405.823 348.883,-395.47 340.666,-402.159 346.631,-405.823"/>
</g>
<!-- dynamic&#45;&gt;calculator -->
<g id="edge28" class="edge"><title>dynamic&#45;&gt;calculator</title>
<path fill="none" stroke="black" d="M297.7,-433.804C267.39,-408.633 206.641,-358.187 171.592,-329.082"/>
<polygon fill="black" stroke="black" points="173.616,-326.214 163.687,-322.518 169.144,-331.599 173.616,-326.214"/>
</g>
<!-- dynamic&#45;&gt;start -->
<g id="edge30" class="edge"><title>dynamic&#45;&gt;start</title>
<path fill="none" stroke="black" d="M288.832,-436.503C266.601,-426.107 234.461,-410.688 207,-396 163.013,-372.473 113.367,-342.792 83.1336,-324.353"/>
<polygon fill="black" stroke="black" points="84.7586,-321.244 74.4019,-319.011 81.1053,-327.215 84.7586,-321.244"/>
</g>
<!-- data&#45;eap -->
<g id="node21" class="node"><title>data&#45;eap</title>
<ellipse fill="none" stroke="black" cx="436" cy="-234" rx="40.1057" ry="18"/>
<text text-anchor="middle" x="436" y="-229.8" font-family="Times,serif" font-size="14.00">data&#45;eap</text>
</g>
<!-- data&#45;eap&#45;&gt;tools&#45;data -->
<g id="edge32" class="edge"><title>data&#45;eap&#45;&gt;tools&#45;data</title>
<path fill="none" stroke="black" d="M466.507,-222.165C472.614,-220.066 478.998,-217.924 485,-216 510.02,-207.981 574.971,-189.026 619.601,-176.1"/>
<polygon fill="black" stroke="black" points="620.719,-179.42 629.352,-173.278 618.773,-172.696 620.719,-179.42"/>
</g>
<!-- data&#45;eap&#45;&gt;tools&#45;i18n -->
<g id="edge33" class="edge"><title>data&#45;eap&#45;&gt;tools&#45;i18n</title>
<path fill="none" stroke="black" d="M458.72,-219.17C475.786,-208.782 499.399,-194.409 518.466,-182.803"/>
<polygon fill="black" stroke="black" points="520.417,-185.713 527.139,-177.524 516.777,-179.734 520.417,-185.713"/>
</g>
<!-- data&#45;eap&#45;&gt;i18n&#45;ui -->
<g id="edge34" class="edge"><title>data&#45;eap&#45;&gt;i18n&#45;ui</title>
<path fill="none" stroke="black" d="M439.631,-216.055C441.301,-208.261 443.324,-198.822 445.197,-190.079"/>
<polygon fill="black" stroke="black" points="448.625,-190.787 447.298,-180.275 441.78,-189.32 448.625,-190.787"/>
</g>
<!-- server -->
<g id="node22" class="node"><title>server</title>
<ellipse fill="none" stroke="black" cx="141" cy="-450" rx="31.9219" ry="18"/>
<text text-anchor="middle" x="141" y="-445.8" font-family="Times,serif" font-size="14.00">server</text>
</g>
<!-- server&#45;&gt;services -->
<g id="edge39" class="edge"><title>server&#45;&gt;services</title>
<path fill="none" stroke="black" d="M168.169,-440.276C205.866,-428.172 274.335,-406.186 318.191,-392.104"/>
<polygon fill="black" stroke="black" points="319.514,-395.355 327.965,-388.965 317.374,-388.69 319.514,-395.355"/>
</g>
<!-- server&#45;&gt;start -->
<g id="edge38" class="edge"><title>server&#45;&gt;start</title>
<path fill="none" stroke="black" d="M131.135,-432.711C116.166,-407.994 87.6033,-360.833 70.0363,-331.827"/>
<polygon fill="black" stroke="black" points="72.9244,-329.84 64.7502,-323.099 66.9369,-333.466 72.9244,-329.84"/>
</g>
</g>
</svg>
